<mxfile host="app.diagrams.net" modified="2023-08-31T08:13:46.735Z" agent="Mozilla/5.0 (Windows NT 10.0; Win64; x64) AppleWebKit/537.36 (KHTML, like Gecko) Chrome/110.0.0.0 Safari/537.36" version="21.7.1" etag="5feSe8x6KxpNh5xxkk8s" type="github">
  <diagram name="Page-1" id="mRhfhF3dmZmOzfU4qW8e">
    <mxGraphModel>
      <root>
        <mxCell id="0" />
        <mxCell id="1" parent="0" />
      </root>
    </mxGraphModel>
  </diagram>
</mxfile>
